<svg width="165" height="141" viewBox="0 0 165 141" fill="none" xmlns="http://www.w3.org/2000/svg">
<g id="download (52) 1">
<path id="Vector" d="M144.888 76.526C144.683 111.373 116.281 139.456 81.4515 139.251C46.6226 139.046 18.5541 110.63 18.7592 75.7825C18.9642 40.934 47.3657 12.8522 82.1947 13.0567C117.024 13.2619 145.093 41.6775 144.888 76.526Z" fill="#FFC42E"/>
<path id="Vector_2" d="M113.588 60.5569C113.559 65.6057 109.444 69.6753 104.397 69.6455C99.35 69.6157 95.2839 65.498 95.3136 60.4492C95.3434 55.3998 99.4583 51.3308 104.505 51.3606C109.551 51.3898 113.618 55.5068 113.588 60.5569Z" fill="#14274F"/>
<path id="Vector_3" d="M68.5195 60.2908C68.4897 65.3396 64.3741 69.4092 59.328 69.3794C54.2818 69.3496 50.215 65.2319 50.2448 60.1831C50.2746 55.1337 54.3895 51.0647 59.4363 51.0945C64.4817 51.1243 68.5492 55.2413 68.5195 60.2908Z" fill="#14274F"/>
<path id="Vector_4" d="M118.485 108.874C93.8484 103.414 69.2112 103.414 44.5747 108.874C44.0157 108.874 43.6293 108.319 43.8188 107.793C49.4706 92.0732 64.5745 81.6628 81.7636 81.7637C98.7903 81.8646 113.65 92.2553 119.242 107.793C119.43 108.319 119.043 108.874 118.485 108.874Z" fill="#14274F"/>
</g>
</svg>
