<svg width="10" height="17" viewBox="0 0 10 17" fill="none" xmlns="http://www.w3.org/2000/svg">
<path id="Vector" d="M8.61793 2.809L8.61791 2.80903L3.73395 7.69192C3.73392 7.69195 3.73389 7.69198 3.73386 7.69201C3.66103 7.76469 3.60324 7.851 3.56381 7.94603C3.52436 8.0411 3.50406 8.14301 3.50406 8.24594C3.50406 8.34887 3.52436 8.45078 3.56381 8.54585C3.60324 8.64088 3.66103 8.7272 3.73386 8.79987C3.73389 8.7999 3.73392 8.79993 3.73395 8.79996L8.61791 13.6829L8.61793 13.6829C8.87073 13.9356 9.01279 14.2783 9.01288 14.6357C9.01296 14.9931 8.87106 15.336 8.61838 15.5888C8.36571 15.8416 8.02296 15.9836 7.66554 15.9837C7.30813 15.9838 6.96534 15.8419 6.71254 15.5892C6.71253 15.5892 6.71252 15.5892 6.7125 15.5892L1.82862 10.7053C1.82856 10.7053 1.82851 10.7052 1.82845 10.7052C1.17746 10.0523 0.81189 9.16792 0.81189 8.24594C0.81189 7.32394 1.17747 6.43956 1.82849 5.78668C1.82854 5.78664 1.82858 5.7866 1.82862 5.78656L6.7125 0.902675C6.71252 0.902661 6.71253 0.902647 6.71254 0.902633C6.96534 0.649983 7.30813 0.508095 7.66554 0.508179C8.02296 0.508263 8.36571 0.650329 8.61838 0.903124C8.87106 1.15592 9.01296 1.49873 9.01288 1.85616C9.01279 2.21358 8.87073 2.55633 8.61793 2.809Z" fill="#ECE7E3" stroke="#2E426E" stroke-width="0.5"/>
</svg>
