<svg width="13" height="15" viewBox="0 0 13 15" fill="none" xmlns="http://www.w3.org/2000/svg">
<path id="Vector" d="M10.8295 1.44849C10.3462 1.07009 9.73326 0.897383 9.12349 0.967781L2.08051 1.75094C1.77432 1.78627 1.49456 1.94133 1.30232 2.18224C1.11008 2.42316 1.02098 2.73036 1.05449 3.03675C1.07106 3.18987 1.11779 3.33819 1.19197 3.47317C1.26615 3.60814 1.36633 3.72708 1.48671 3.82314C1.6071 3.91921 1.74531 3.99048 1.89338 4.03286C2.04145 4.07523 2.19644 4.08787 2.34942 4.07005L7.73457 3.45658L0.457848 12.5758C0.264857 12.8177 0.175848 13.1263 0.210402 13.4338C0.244956 13.7413 0.400242 14.0224 0.642099 14.2154C0.883956 14.4084 1.19257 14.4974 1.50006 14.4629C1.80754 14.4283 2.0887 14.273 2.28169 14.0312L9.55842 4.91193L10.1646 10.3062C10.1981 10.614 10.3525 10.8958 10.5938 11.0898C10.8351 11.2838 11.1436 11.3739 11.4513 11.3404C11.7591 11.3069 12.041 11.1526 12.2349 10.9112C12.4289 10.6699 12.519 10.3615 12.4856 10.0537L11.686 3.01254C11.6188 2.39836 11.3108 1.83588 10.8295 1.44849Z" fill="#5F6D8A"/>
</svg>
