<svg width="19" height="21" viewBox="0 0 19 21" fill="none" xmlns="http://www.w3.org/2000/svg">
<g clip-path="url(#clip0_47_92)">
<path d="M18.2083 9.66661C17.9984 9.66661 17.797 9.57881 17.6485 9.42253C17.5001 9.26625 17.4167 9.05429 17.4167 8.83327C17.415 7.06571 16.7472 5.37104 15.5598 4.12118C14.3724 2.87132 12.7625 2.16837 11.0833 2.16661C10.8734 2.16661 10.672 2.07881 10.5235 1.92253C10.3751 1.76625 10.2917 1.55429 10.2917 1.33327C10.2917 1.11226 10.3751 0.900299 10.5235 0.744018C10.672 0.587738 10.8734 0.499941 11.0833 0.499941C13.1822 0.502367 15.1945 1.38112 16.6787 2.9434C18.1629 4.50567 18.9977 6.62388 19 8.83327C19 9.05429 18.9166 9.26625 18.7681 9.42253C18.6197 9.57881 18.4183 9.66661 18.2083 9.66661ZM15.8333 8.83327C15.8333 7.50719 15.3329 6.23542 14.4421 5.29774C13.5513 4.36006 12.3431 3.83327 11.0833 3.83327C10.8734 3.83327 10.672 3.92107 10.5235 4.07735C10.3751 4.23363 10.2917 4.44559 10.2917 4.66661C10.2917 4.88762 10.3751 5.09958 10.5235 5.25586C10.672 5.41214 10.8734 5.49994 11.0833 5.49994C11.9232 5.49994 12.7286 5.85113 13.3225 6.47625C13.9164 7.10137 14.25 7.94922 14.25 8.83327C14.25 9.05429 14.3334 9.26625 14.4819 9.42253C14.6303 9.57881 14.8317 9.66661 15.0417 9.66661C15.2516 9.66661 15.453 9.57881 15.6015 9.42253C15.7499 9.26625 15.8333 9.05429 15.8333 8.83327ZM17.5615 18.9699L18.2819 18.0958C18.7405 17.6115 18.998 16.9557 18.998 16.272C18.998 15.5883 18.7405 14.9325 18.2819 14.4483C18.2574 14.4224 16.3527 12.8799 16.3527 12.8799C15.8955 12.4219 15.2883 12.1668 14.6571 12.1678C14.026 12.1687 13.4195 12.4255 12.9635 12.8849L11.4546 14.2233C10.2229 13.6867 9.10407 12.8993 8.1623 11.9062C7.22053 10.9132 6.47441 9.73405 5.96678 8.43661L7.23345 6.85327C7.67022 6.37342 7.91452 5.73484 7.91555 5.07028C7.91658 4.40571 7.67427 3.7663 7.23899 3.28494C7.23899 3.28494 5.77203 1.28244 5.74749 1.25661C5.29581 0.778064 4.6834 0.505792 4.04258 0.498619C3.40176 0.491447 2.78399 0.749949 2.32274 1.21827L1.41232 2.05161C-3.96626 8.61994 7.61582 20.7174 14.0616 20.4999C14.7125 20.5039 15.3575 20.3706 15.9587 20.1078C16.5598 19.845 17.1048 19.4581 17.5615 18.9699Z" fill="#FC913B"/>
</g>
<defs>
<clipPath id="clip0_47_92">
<rect width="19" height="20" fill="white" transform="translate(0 0.5)"/>
</clipPath>
</defs>
</svg>
