<svg width="19" height="19" viewBox="0 0 19 19" fill="none" xmlns="http://www.w3.org/2000/svg">
<g id="phone-call (3) 2" clip-path="url(#clip0_317_90)">
<path id="Vector" d="M17.6074 8.74985C17.4085 8.74985 17.2177 8.67084 17.0771 8.53018C16.9364 8.38953 16.8574 8.19877 16.8574 7.99985C16.8558 6.40904 16.2232 4.88384 15.0983 3.75897C13.9734 2.63409 12.4482 2.00144 10.8574 1.99985C10.6585 1.99985 10.4677 1.92084 10.3271 1.78019C10.1864 1.63953 10.1074 1.44877 10.1074 1.24985C10.1074 1.05094 10.1864 0.860177 10.3271 0.719525C10.4677 0.578873 10.6585 0.499855 10.8574 0.499855C12.8459 0.502039 14.7522 1.29292 16.1583 2.69897C17.5643 4.10502 18.3552 6.0114 18.3574 7.99985C18.3574 8.19877 18.2784 8.38953 18.1377 8.53018C17.9971 8.67084 17.8063 8.74985 17.6074 8.74985ZM15.3574 7.99985C15.3574 6.80638 14.8833 5.66179 14.0394 4.81787C13.1955 3.97396 12.0509 3.49985 10.8574 3.49985C10.6585 3.49985 10.4677 3.57887 10.3271 3.71952C10.1864 3.86018 10.1074 4.05094 10.1074 4.24985C10.1074 4.44877 10.1864 4.63953 10.3271 4.78018C10.4677 4.92084 10.6585 4.99985 10.8574 4.99985C11.653 4.99985 12.4161 5.31593 12.9787 5.87853C13.5413 6.44114 13.8574 7.20421 13.8574 7.99985C13.8574 8.19877 13.9364 8.38953 14.0771 8.53018C14.2177 8.67084 14.4085 8.74985 14.6074 8.74985C14.8063 8.74985 14.9971 8.67084 15.1377 8.53018C15.2784 8.38953 15.3574 8.19877 15.3574 7.99985ZM16.9946 17.1229L17.6771 16.3361C18.1116 15.9003 18.3555 15.3101 18.3555 14.6947C18.3555 14.0794 18.1116 13.4892 17.6771 13.0534C17.6539 13.0301 15.8494 11.6419 15.8494 11.6419C15.4163 11.2296 14.841 11 14.2431 11.0009C13.6452 11.0017 13.0706 11.2329 12.6386 11.6464L11.2091 12.8509C10.0423 12.3679 8.98231 11.6592 8.09011 10.7655C7.19791 9.87175 6.49106 8.81056 6.01015 7.64285L7.21015 6.21785C7.62394 5.78598 7.85537 5.21126 7.85635 4.61316C7.85733 4.01505 7.62777 3.43958 7.2154 3.00635C7.2154 3.00635 5.82565 1.2041 5.8024 1.18085C5.37449 0.750166 4.79431 0.505121 4.18722 0.498666C3.58013 0.492211 2.99487 0.724863 2.5579 1.14635L1.6954 1.89635C-3.4001 7.80785 7.5724 18.6956 13.6789 18.4999C14.2955 18.5034 14.9066 18.3834 15.4761 18.1469C16.0456 17.9104 16.562 17.5622 16.9946 17.1229Z" fill="#14274F"/>
</g>
<defs>
<clipPath id="clip0_317_90">
<rect width="18" height="18" fill="white" transform="translate(0.357422 0.5)"/>
</clipPath>
</defs>
</svg>
